<svg width="24" height="24" viewBox="0 0 24 24" fill="none" xmlns="http://www.w3.org/2000/svg">
<path d="M4.5 17C4.5 18.3807 5.61929 19.5 7 19.5H17C18.3807 19.5 19.5 18.3807 19.5 17V12.75C19.5 12.3358 19.8358 12 20.25 12C20.6642 12 21 12.3358 21 12.75V17C21 19.14 19.3194 20.8879 17.2061 20.9951L17 21H7L6.79395 20.9951C4.7488 20.8913 3.10865 19.2512 3.00488 17.2061L3 17V12.75C3 12.3358 3.33579 12 3.75 12C4.16421 12 4.5 12.3358 4.5 12.75V17ZM12 3C12.4142 3 12.75 3.3358 12.75 3.75V14.4395L15.7197 11.4697C16.0126 11.1768 16.4874 11.1768 16.7803 11.4697C17.0732 11.7626 17.0732 12.2374 16.7803 12.5303L12.5303 16.7803C12.3896 16.9209 12.1989 17 12 17C11.8508 17 11.7063 16.9556 11.584 16.874L11.4697 16.7803L7.21973 12.5303C6.92683 12.2374 6.92683 11.7626 7.21973 11.4697C7.51262 11.1768 7.98738 11.1768 8.28027 11.4697L11.25 14.4395V3.75C11.25 3.3358 11.5858 3 12 3Z" fill="black"/>
</svg>
