<svg width="24" height="24" viewBox="0 0 24 24" fill="none" xmlns="http://www.w3.org/2000/svg">
<path d="M4.71869 18.7204L17.9399 5.49917H9.49745C9.08324 5.49917 8.74753 5.16346 8.74753 4.74925C8.74753 4.33504 9.08324 3.99933 9.49745 3.99933L19.7505 3.99933L19.8976 4.01383C20.0417 4.04266 20.1754 4.11345 20.2808 4.21892C20.4215 4.35957 20.5004 4.55034 20.5004 4.74925V15.0023C20.5004 15.4165 20.1647 15.7522 19.7505 15.7522C19.3363 15.7522 19.0006 15.4165 19.0006 15.0023V6.55983L5.77935 19.7811C5.48646 20.0739 5.01159 20.0739 4.71869 19.7811C4.4258 19.4882 4.4258 19.0133 4.71869 18.7204Z" fill="black"/>
</svg>
