<svg width="24" height="24" viewBox="0 0 24 24" fill="none" xmlns="http://www.w3.org/2000/svg">
<path d="M14 16.5V18H6V16.5H7.5H14ZM16.5 14V7.5V6C16.5 4.61929 15.3807 3.5 14 3.5H6C4.61929 3.5 3.5 4.61929 3.5 6V14C3.5 15.3807 4.61929 16.5 6 16.5V18C3.79086 18 2 16.2091 2 14V6C2 3.79086 3.79086 2 6 2H14L14.2061 2.00488C16.3194 2.11211 18 3.85996 18 6V14L17.9951 14.2061C17.8879 16.3194 16.14 18 14 18V16.5C15.3807 16.5 16.5 15.3807 16.5 14Z" fill="black"/>
<path fill-rule="evenodd" clip-rule="evenodd" d="M6 2C3.79086 2 2 3.79086 2 6V14C2 16.2091 3.79086 18 6 18C6 20.2091 7.79086 22 10 22H18C20.14 22 21.8879 20.3194 21.9951 18.2061L22 18V10C22 7.85996 20.3194 6.11211 18.2061 6.00488L18 6C18 3.79086 16.2091 2 14 2H6ZM7.5 18C7.5 19.3807 8.61929 20.5 10 20.5H18C19.3807 20.5 20.5 19.3807 20.5 18V10C20.5 8.61929 19.3807 7.5 18 7.5V14C18 16.2091 16.2091 18 14 18H7.5ZM16.5 6V7.5V14C16.5 15.3807 15.3807 16.5 14 16.5H7.5H6C4.61929 16.5 3.5 15.3807 3.5 14V6C3.5 4.61929 4.61929 3.5 6 3.5H14C15.3807 3.5 16.5 4.61929 16.5 6Z" fill="black"/>
</svg>
